# xmcd
#
# Track frame offsets:
# 180
# 17747
# 33175
# 48947
# 61410
# 81605
# 110357
# 125950
# 161767
# 179057
#
# Disc length: 2765 seconds
#
#
# Revision: 0
# Processed by: cddbd v1.5.2PL0 Copyright (c) Steve Scherf et al.
# Submitted via: FreeRIP 2.35 
#
DISCID=8c0acb0a
DTITLE=Ezra Charles - Beaumont Boy
DYEAR=2005
DGENRE=Blues
TTITLE0=Greater Texas
TTITLE1=Wear it Proud
TTITLE2=House of Blue Lights
TTITLE3=Beaumont Boys
TTITLE4=The Other Angels
TTITLE5=Talk to Me
TTITLE6=Bolivar Ferry
TTITLE7=Bad Year for the Blues
TTITLE8=Weekend in Austin
TTITLE9=You are the Music
EXTD=
EXTT0=
EXTT1=
EXTT2=
EXTT3=
EXTT4=
EXTT5=
EXTT6=
EXTT7=
EXTT8=
EXTT9=
PLAYORDER=
